<svg width="56" height="56" viewBox="0 0 56 56" fill="none" xmlns="http://www.w3.org/2000/svg">
<path d="M8.20101 8.20101C3.62041 12.7816 0.769777 18.8088 0.134828 25.2555C-0.500122 31.7023 1.1199 38.1698 4.71885 43.556C8.31781 48.9422 13.673 52.9139 19.872 54.7943C26.071 56.6748 32.7303 56.3476 38.7151 53.8686C44.7 51.3896 49.6401 46.9121 52.6938 41.1991C55.7475 35.4861 56.7258 28.8909 55.462 22.5375C54.1982 16.184 50.7705 10.4653 45.763 6.35571C40.7555 2.24614 34.478 4.89072e-07 28 0V4.2849C33.4866 4.2849 38.8035 6.18731 43.0447 9.66798C47.2859 13.1487 50.189 17.9922 51.2594 23.3734C52.3298 28.7546 51.5012 34.3405 48.9148 39.1792C46.3285 44.018 42.1443 47.8103 37.0754 49.9099C32.0064 52.0095 26.3662 52.2866 21.1159 50.6939C15.8655 49.1013 11.3298 45.7374 8.28162 41.1754C5.23342 36.6135 3.86131 31.1357 4.3991 25.6755C4.93688 20.2153 7.35127 15.1105 11.2309 11.2309L8.20101 8.20101Z" fill="#3B5999"/>
</svg>
